# xmcd
#
# Track frame offsets: 
#        150
#        14632
#        32670
#        40512
#
# Disc length: 712 seconds
#
# Revision: 2
# Processed by: cddbd v1.4PL0 Copyright (c) Steve Scherf et al.
# Submitted via: ExactAudioCopy v0.90b4
#
DISCID=2602c604
DTITLE=The Jon Spencer Blues Explosion - Wail CD Single (UK)
DYEAR=1997
DGENRE=Indie
TTITLE0=Wail - Video Mix
TTITLE1=Yellow Eyes
TTITLE2=Buscemi
TTITLE3=Turn Up Greene
EXTD=
EXTT0=
EXTT1=
EXTT2=
EXTT3=
PLAYORDER=
